<mxfile host="app.diagrams.net" agent="Mozilla/5.0 (Macintosh; Intel Mac OS X 10_15_7) AppleWebKit/537.36 (KHTML, like Gecko) Chrome/132.0.0.0 Safari/537.36" version="26.0.11">
  <diagram name="Page-1" id="G1hk7cXLOptppJQzhFXz">
    <mxGraphModel dx="1194" dy="612" grid="1" gridSize="10" guides="1" tooltips="1" connect="1" arrows="1" fold="1" page="1" pageScale="1" pageWidth="827" pageHeight="1169" math="0" shadow="0">
      <root>
        <mxCell id="0" />
        <mxCell id="1" parent="0" />
        <mxCell id="fsNtkcRwd-RCCKqtk2sz-1" value="" style="rounded=0;whiteSpace=wrap;html=1;" parent="1" vertex="1">
          <mxGeometry x="130" y="490" width="80" height="570" as="geometry" />
        </mxCell>
        <mxCell id="fsNtkcRwd-RCCKqtk2sz-2" value="" style="rounded=0;whiteSpace=wrap;html=1;" parent="1" vertex="1">
          <mxGeometry x="280" y="220" width="480" height="110" as="geometry" />
        </mxCell>
        <mxCell id="fsNtkcRwd-RCCKqtk2sz-3" value="48 bit virtual address" style="rounded=0;whiteSpace=wrap;html=1;" parent="1" vertex="1">
          <mxGeometry x="280" y="220" width="360" height="50" as="geometry" />
        </mxCell>
        <mxCell id="fsNtkcRwd-RCCKqtk2sz-4" value="unused bits" style="rounded=0;whiteSpace=wrap;html=1;" parent="1" vertex="1">
          <mxGeometry x="640" y="220" width="120" height="50" as="geometry" />
        </mxCell>
        <mxCell id="fsNtkcRwd-RCCKqtk2sz-5" value="Bounds&lt;div&gt;&lt;b&gt;Upper [11:3]&lt;/b&gt;&lt;/div&gt;&lt;div&gt;&lt;b&gt;Bottom [13:3&lt;/b&gt;]&lt;/div&gt;" style="rounded=0;whiteSpace=wrap;html=1;" parent="1" vertex="1">
          <mxGeometry x="280" y="270" width="210" height="60" as="geometry" />
        </mxCell>
        <mxCell id="fsNtkcRwd-RCCKqtk2sz-6" value="object type" style="rounded=0;whiteSpace=wrap;html=1;" parent="1" vertex="1">
          <mxGeometry x="490" y="270" width="80" height="60" as="geometry" />
        </mxCell>
        <mxCell id="fsNtkcRwd-RCCKqtk2sz-7" value="Permission" style="rounded=0;whiteSpace=wrap;html=1;" parent="1" vertex="1">
          <mxGeometry x="570" y="270" width="190" height="60" as="geometry" />
        </mxCell>
        <mxCell id="fsNtkcRwd-RCCKqtk2sz-8" value="" style="rounded=0;whiteSpace=wrap;html=1;" parent="1" vertex="1">
          <mxGeometry x="540" y="560" width="260" height="290" as="geometry" />
        </mxCell>
        <mxCell id="fsNtkcRwd-RCCKqtk2sz-9" value="" style="rounded=0;whiteSpace=wrap;html=1;" parent="1" vertex="1">
          <mxGeometry x="570" y="610" width="200" height="140" as="geometry" />
        </mxCell>
        <mxCell id="fsNtkcRwd-RCCKqtk2sz-10" value="Huge page entry" style="rounded=0;whiteSpace=wrap;html=1;" parent="1" vertex="1">
          <mxGeometry x="570" y="610" width="200" height="50" as="geometry" />
        </mxCell>
        <mxCell id="fsNtkcRwd-RCCKqtk2sz-11" value="&lt;font style=&quot;font-size: 18px;&quot;&gt;Processor descirpton&lt;/font&gt;" style="rounded=0;whiteSpace=wrap;html=1;" parent="1" vertex="1">
          <mxGeometry x="540" y="790" width="260" height="60" as="geometry" />
        </mxCell>
        <mxCell id="fsNtkcRwd-RCCKqtk2sz-12" value="&lt;h1 style=&quot;margin-top: 0px;&quot;&gt;&lt;span style=&quot;font-weight: normal;&quot;&gt;Pointer accessing memory region.&lt;/span&gt;&lt;/h1&gt;" style="text;html=1;whiteSpace=wrap;overflow=hidden;rounded=0;" parent="1" vertex="1">
          <mxGeometry x="300" y="140" width="360" height="70" as="geometry" />
        </mxCell>
        <mxCell id="fsNtkcRwd-RCCKqtk2sz-13" value="4k page entry" style="rounded=0;whiteSpace=wrap;html=1;" parent="1" vertex="1">
          <mxGeometry x="570" y="660" width="200" height="20" as="geometry" />
        </mxCell>
        <mxCell id="fsNtkcRwd-RCCKqtk2sz-15" value="4k page entry" style="rounded=0;whiteSpace=wrap;html=1;" parent="1" vertex="1">
          <mxGeometry x="570" y="680" width="200" height="20" as="geometry" />
        </mxCell>
        <mxCell id="fsNtkcRwd-RCCKqtk2sz-16" value="N page entry" style="rounded=0;whiteSpace=wrap;html=1;" parent="1" vertex="1">
          <mxGeometry x="570" y="700" width="200" height="50" as="geometry" />
        </mxCell>
        <mxCell id="fsNtkcRwd-RCCKqtk2sz-17" value="&lt;h1 style=&quot;margin-top: 0px;&quot;&gt;&lt;span style=&quot;font-weight: normal;&quot;&gt;L1 TLB&lt;/span&gt;&lt;/h1&gt;" style="text;html=1;whiteSpace=wrap;overflow=hidden;rounded=0;" parent="1" vertex="1">
          <mxGeometry x="620" y="870" width="120" height="50" as="geometry" />
        </mxCell>
        <mxCell id="fsNtkcRwd-RCCKqtk2sz-18" value="" style="endArrow=none;html=1;rounded=0;exitX=0;exitY=0.25;exitDx=0;exitDy=0;entryX=1;entryY=0.25;entryDx=0;entryDy=0;" parent="1" source="fsNtkcRwd-RCCKqtk2sz-1" target="fsNtkcRwd-RCCKqtk2sz-1" edge="1">
          <mxGeometry width="50" height="50" relative="1" as="geometry">
            <mxPoint x="430" y="580" as="sourcePoint" />
            <mxPoint x="480" y="530" as="targetPoint" />
          </mxGeometry>
        </mxCell>
        <mxCell id="fsNtkcRwd-RCCKqtk2sz-19" value="" style="endArrow=none;html=1;rounded=0;" parent="1" edge="1">
          <mxGeometry width="50" height="50" relative="1" as="geometry">
            <mxPoint x="130" y="820" as="sourcePoint" />
            <mxPoint x="210" y="820" as="targetPoint" />
          </mxGeometry>
        </mxCell>
        <mxCell id="fsNtkcRwd-RCCKqtk2sz-20" value="" style="endArrow=none;html=1;rounded=0;entryX=0;entryY=0.75;entryDx=0;entryDy=0;exitX=0;exitY=0.5;exitDx=0;exitDy=0;fillColor=#97D077;strokeColor=light-dark(#006600,#FFFFFF);" parent="1" source="fsNtkcRwd-RCCKqtk2sz-10" target="fsNtkcRwd-RCCKqtk2sz-3" edge="1">
          <mxGeometry width="50" height="50" relative="1" as="geometry">
            <mxPoint x="480" y="660" as="sourcePoint" />
            <mxPoint x="480" y="530" as="targetPoint" />
            <Array as="points">
              <mxPoint x="470" y="630" />
              <mxPoint x="470" y="430" />
              <mxPoint x="210" y="430" />
              <mxPoint x="210" y="258" />
            </Array>
          </mxGeometry>
        </mxCell>
        <mxCell id="fsNtkcRwd-RCCKqtk2sz-21" value="" style="endArrow=classic;html=1;rounded=0;entryX=1;entryY=0.25;entryDx=0;entryDy=0;exitX=0;exitY=0.5;exitDx=0;exitDy=0;" parent="1" source="fsNtkcRwd-RCCKqtk2sz-10" target="fsNtkcRwd-RCCKqtk2sz-1" edge="1">
          <mxGeometry width="50" height="50" relative="1" as="geometry">
            <mxPoint x="430" y="580" as="sourcePoint" />
            <mxPoint x="480" y="530" as="targetPoint" />
          </mxGeometry>
        </mxCell>
        <mxCell id="fsNtkcRwd-RCCKqtk2sz-22" value="" style="endArrow=classic;html=1;rounded=0;entryX=0.964;entryY=0.584;entryDx=0;entryDy=0;entryPerimeter=0;" parent="1" target="fsNtkcRwd-RCCKqtk2sz-1" edge="1">
          <mxGeometry width="50" height="50" relative="1" as="geometry">
            <mxPoint x="570" y="640" as="sourcePoint" />
            <mxPoint x="480" y="530" as="targetPoint" />
          </mxGeometry>
        </mxCell>
        <mxCell id="fsNtkcRwd-RCCKqtk2sz-23" value="" style="endArrow=none;dashed=1;html=1;dashPattern=1 3;strokeWidth=2;rounded=0;" parent="1" edge="1">
          <mxGeometry width="50" height="50" relative="1" as="geometry">
            <mxPoint x="110" y="690" as="sourcePoint" />
            <mxPoint x="230" y="690" as="targetPoint" />
          </mxGeometry>
        </mxCell>
        <mxCell id="fsNtkcRwd-RCCKqtk2sz-24" value="" style="endArrow=none;dashed=1;html=1;dashPattern=1 3;strokeWidth=2;rounded=0;" parent="1" edge="1">
          <mxGeometry width="50" height="50" relative="1" as="geometry">
            <mxPoint x="110" y="730" as="sourcePoint" />
            <mxPoint x="220" y="730" as="targetPoint" />
          </mxGeometry>
        </mxCell>
        <mxCell id="fsNtkcRwd-RCCKqtk2sz-25" value="" style="endArrow=none;dashed=1;html=1;dashPattern=1 3;strokeWidth=2;rounded=0;" parent="1" edge="1">
          <mxGeometry width="50" height="50" relative="1" as="geometry">
            <mxPoint x="210" y="690" as="sourcePoint" />
            <mxPoint x="570" y="640" as="targetPoint" />
          </mxGeometry>
        </mxCell>
        <mxCell id="fsNtkcRwd-RCCKqtk2sz-26" value="" style="endArrow=none;dashed=1;html=1;dashPattern=1 3;strokeWidth=2;rounded=0;entryX=0;entryY=0.5;entryDx=0;entryDy=0;" parent="1" target="fsNtkcRwd-RCCKqtk2sz-10" edge="1">
          <mxGeometry width="50" height="50" relative="1" as="geometry">
            <mxPoint x="210" y="730" as="sourcePoint" />
            <mxPoint x="480" y="530" as="targetPoint" />
          </mxGeometry>
        </mxCell>
        <mxCell id="fsNtkcRwd-RCCKqtk2sz-27" value="" style="endArrow=none;html=1;rounded=0;strokeColor=light-dark(#006600,#FFFFFF);" parent="1" edge="1">
          <mxGeometry width="50" height="50" relative="1" as="geometry">
            <mxPoint x="210" y="710" as="sourcePoint" />
            <mxPoint x="570" y="640" as="targetPoint" />
          </mxGeometry>
        </mxCell>
        <mxCell id="fsNtkcRwd-RCCKqtk2sz-28" value="" style="endArrow=none;html=1;rounded=0;entryX=1.009;entryY=0.386;entryDx=0;entryDy=0;entryPerimeter=0;strokeColor=light-dark(#006600,#FFFFFF);" parent="1" target="fsNtkcRwd-RCCKqtk2sz-1" edge="1">
          <mxGeometry width="50" height="50" relative="1" as="geometry">
            <mxPoint x="130" y="710" as="sourcePoint" />
            <mxPoint x="480" y="530" as="targetPoint" />
          </mxGeometry>
        </mxCell>
        <mxCell id="fsNtkcRwd-RCCKqtk2sz-29" value="&lt;h1 style=&quot;margin-top: 0px;&quot;&gt;&lt;br&gt;&lt;/h1&gt;" style="text;html=1;whiteSpace=wrap;overflow=hidden;rounded=0;" parent="1" vertex="1">
          <mxGeometry x="520" y="480" width="360" height="70" as="geometry" />
        </mxCell>
        <mxCell id="fsNtkcRwd-RCCKqtk2sz-31" value="" style="endArrow=none;html=1;rounded=0;" parent="1" edge="1">
          <mxGeometry width="50" height="50" relative="1" as="geometry">
            <mxPoint x="320" y="1030" as="sourcePoint" />
            <mxPoint x="400" y="1030" as="targetPoint" />
          </mxGeometry>
        </mxCell>
        <mxCell id="fsNtkcRwd-RCCKqtk2sz-32" value="Huge page" style="text;html=1;align=center;verticalAlign=middle;whiteSpace=wrap;rounded=0;" parent="1" vertex="1">
          <mxGeometry x="310" y="990" width="60" height="30" as="geometry" />
        </mxCell>
        <mxCell id="fsNtkcRwd-RCCKqtk2sz-35" value="" style="endArrow=none;dashed=1;html=1;dashPattern=1 3;strokeWidth=2;rounded=0;" parent="1" edge="1">
          <mxGeometry width="50" height="50" relative="1" as="geometry">
            <mxPoint x="320" y="1080" as="sourcePoint" />
            <mxPoint x="400" y="1080" as="targetPoint" />
          </mxGeometry>
        </mxCell>
        <mxCell id="fsNtkcRwd-RCCKqtk2sz-36" value="Bounds" style="text;html=1;align=center;verticalAlign=middle;whiteSpace=wrap;rounded=0;" parent="1" vertex="1">
          <mxGeometry x="310" y="1050" width="60" height="30" as="geometry" />
        </mxCell>
        <mxCell id="fsNtkcRwd-RCCKqtk2sz-41" value="" style="endArrow=none;html=1;rounded=0;strokeColor=light-dark(#97D077,#FFFFFF);" parent="1" edge="1">
          <mxGeometry width="50" height="50" relative="1" as="geometry">
            <mxPoint x="470" y="1030" as="sourcePoint" />
            <mxPoint x="590" y="1030" as="targetPoint" />
          </mxGeometry>
        </mxCell>
        <mxCell id="fsNtkcRwd-RCCKqtk2sz-42" value="Accessing memory region" style="text;html=1;align=center;verticalAlign=middle;whiteSpace=wrap;rounded=0;" parent="1" vertex="1">
          <mxGeometry x="470" y="990" width="100" height="30" as="geometry" />
        </mxCell>
      </root>
    </mxGraphModel>
  </diagram>
</mxfile>
